# xmcd
#
# Track frame offsets:
#	150
#	1898
#	17361
#	35185
#	51790
#	68494
#	82183
#	92837
#	110785
#	127143
#	142300
#	154535
#	171324
#	185988
#	202901
#	218542
#	235238
#	252190
#	264862
#
# Disc length: 3817 seconds
#
# Revision: 1
# Processed by: cddbd v1.5.2PL0 Copyright (c) Steve Scherf et al.
# Submitted via: audiograbber 1.83.01
#
DISCID=0e0ee713
DTITLE=Lydie Auvray - Soirée
DYEAR=2008
DGENRE=Pop
TTITLE0=Entree
TTITLE1=Kay Toukan
TTITLE2=Le Paradis
TTITLE3=Der vierte Mann
TTITLE4=Lavendel (-Felder...)
TTITLE5=Chanson d´amour
TTITLE6=Guingette
TTITLE7=N'oubliez pas
TTITLE8=Joschi
TTITLE9=Für Else
TTITLE10=Java En-On
TTITLE11=Tango Taquin
TTITLE12=Chimère
TTITLE13=Petite Mère
TTITLE14=Balata
TTITLE15=Fort-De-France
TTITLE16=Oh Ma Cannelou
TTITLE17=Das bisschen alleine sein
TTITLE18=Todo seguido
EXTD=
EXTT0=
EXTT1=
EXTT2=
EXTT3=
EXTT4=
EXTT5=
EXTT6=
EXTT7=
EXTT8=
EXTT9=
EXTT10=
EXTT11=
EXTT12=
EXTT13=
EXTT14=
EXTT15=
EXTT16=
EXTT17=
EXTT18=
PLAYORDER=
